<?xml version="1.0" encoding="utf-8"?>
<!-- Generator: Adobe Illustrator 26.0.3, SVG Export Plug-In . SVG Version: 6.00 Build 0)  -->
<svg version="1.1" id="Layer_1" xmlns="http://www.w3.org/2000/svg" xmlns:xlink="http://www.w3.org/1999/xlink" x="0px" y="0px"
	 viewBox="0 0 120 60" style="enable-background:new 0 0 120 60;" xml:space="preserve">
<style type="text/css">
	.st0{fill:#FFFFFF;}
	.st1{fill:#040404;}
</style>
<g>
	<path class="st1" d="M12.53,20.67c-1.91-0.39-3.83-0.11-5.71-0.37c-1.98-0.27-2.37,0.84-2.39,2.38c-0.03,2.28-0.01,4.57-0.01,6.53
		c0.73,2.25-0.54,4.82,0.83,6.02c1.35,1.18,3.81,0.31,5.79,0.17c0.15-0.01,0.31,0,0.46,0c4-0.12,6.73-2.52,6.97-6.12
		C18.81,24.41,16.74,21.54,12.53,20.67z M13.92,29.26c-0.41,1.87-1.84,2.47-3.53,2.71c-0.94,0.13-1.22-0.41-1.2-1.22
		c0.03-0.92,0.09-1.83,0.11-2.18c0-1.17-0.01-1.78,0-2.39c0.04-2,0.63-2.41,2.45-1.71C13.39,25.09,14.37,27.21,13.92,29.26z"/>
	<path class="st1" d="M91.65,50.47c-0.22,0.07-0.44,0.14-0.66,0.2c1.15,2.77-1.87,4.22-2.12,6.58c-0.13,1.28-1.17,1.92-2.41,2.09
		c-1.25,0.18-1.39-0.85-1.84-1.64c-0.85-1.51-1.16-3.08-1.23-4.81c-0.13-3.29-1.09-4.08-4.43-3.91c-0.92,0.05-1.79-0.04-2.13-0.95
		c-0.57-1.51-1.01-3.14-0.05-4.64c1.24-1.92,3.16-2.81,5.39-3.07c0.22-0.03,0.65-0.01,0.66,0.03c0.63,4.05,3.59,0.3,5.14,1.49
		c0.5,0.39,1.17,0.02,0.77,1.21c-0.56,1.7,1.86,3.99,3.81,3.89C93.44,48.43,93.55,49.71,91.65,50.47z"/>
	<path class="st1" d="M76.33,32.06c-0.32,0.66-0.61,1.32-0.89,1.99c0.15-0.62,0.32-1.22,0.62-1.77c-1.6,1.45-1.85,3.58-2.71,5.4
		c0.3-0.16,0.54-0.35,0.75-0.56c-0.1,0.21-0.2,0.42-0.31,0.62c-0.44,0.87-1.29,1.64-0.69,2.76c-2.39,3.31-4.78,6.61-8.01,9.19
		c-0.88,0.03-1.67,0.36-2.4,0.82c-0.12,0.08-0.24,0.15-0.36,0.22c0.16-0.17,0.29-0.38,0.39-0.64c-2.02,0.81-4.05,1.62-6.67,2.66
		c1.02,0.12,1.32,0.16,1.61,0.2c0.25-0.32,0.58-0.48,0.93-0.59c-0.28,0.14-0.55,0.3-0.81,0.49c0.06,0.17,0.02,0.3-0.12,0.4
		c-3.8,1.06-7.83,0.64-11.63,2.08c-0.1-1.24,1.07-0.83,1.28-1.46c-1.5-0.81-3.31-0.18-4.81-1c-0.53-0.56-1.31-0.71-1.87-1.18
		c-0.71-0.6-1.11-1.29,0.06-1.88c0.12-0.03,0.24-0.04,0.37-0.04c-0.13,0.08-0.25,0.2-0.37,0.35c4.6,2.35,9.44,2.65,14.47,1.89
		c4.03-0.61,9.65-4.16,11-7.3c-5.96,3.42-12.26,4.88-18.96,4.57c-1.09,0.52-2.27,0.19-3.38,0.37c-0.46,0.07-0.95-0.04-1.43-0.1
		c-0.09-0.07-0.16-0.16-0.21-0.28c-0.01-0.03-0.03-0.06-0.03-0.1c-0.03-0.08-0.04-0.17-0.05-0.26c-0.03-0.57,0.31-0.85,0.75-1.01
		c0,0,0,0,0.01,0c0.52,0.12,1.04,0.24,1.55,0.37c1.37,0.06,2.73,0.29,4.43-0.06c-2.95-1.31-5.82-1.91-8.61-2.74
		c-0.07-0.01-0.14-0.03-0.21-0.04c-0.01-0.03-0.01-0.06-0.02-0.09c-0.09-0.35-0.05-0.7,0.09-1.07c0.01-0.04,0.03-0.08,0.05-0.12
		c0.01-0.02,0.02-0.05,0.03-0.07c0.07-0.05,0.14-0.1,0.22-0.13c0.05-0.03,0.1-0.05,0.15-0.06c0.08,0.07,0.17,0.14,0.25,0.21
		c1.04,0.51,2.07,1.03,3.1,1.54c0.73,0.01,1.46,0.02,2.18,0.01c0,0,0,0,0.01,0c0.41,0.13,0.82,0.28,1.22,0.42c0,0,0.01,0,0.01,0
		c0.17,0.06,0.34,0.12,0.51,0.19c0.06,0.02,0.12,0.04,0.18,0.06c0.15,0.04,0.3,0.08,0.44,0.12c-0.27,0.08-0.52,0.22-0.76,0.44
		c3.08,0.87,6.11,0.71,9.1-0.41c0.25-0.13,0.51-0.26,0.76-0.38c0.15,0.02,0.3,0.04,0.44,0.06c0,0,0,0,0,0
		c0.71,0.08,1.41,0.1,2.1-0.25c0.18-0.1,0.37-0.19,0.55-0.29c-0.02,0.12,0.03,0.26,0.17,0.45c0.9-0.39,1.77-0.84,2.69-1.15
		c2.43-0.81,4.6-1.9,5.69-4.41c0.01-0.15,0.02-0.29,0.02-0.4c0.34-0.15,0.69-0.28,0.95-0.56c0.09-0.11,0.18-0.21,0.26-0.32
		c0.02,0.27,0.07,0.55,0.15,0.84c0.71-1.27,1.95-2.42,0.94-4.09c-0.07,0.09-0.14,0.18-0.21,0.27c0-0.07,0-0.14-0.01-0.21
		c0-0.04,0-0.09-0.01-0.13c0-0.04,0.01-0.07,0.02-0.1c0.03-0.18,0.1-0.36,0.18-0.52c0.75-0.87,0.73-1.94,0.84-3
		c0.08-0.8,0.1-1.78,1.39-1.58c0.07,0.05,0.13,0.11,0.18,0.16h0c0.01,0.01,0.01,0.01,0.01,0.02c-0.14,0.92-0.24,1.83,0.08,2.81
		c0.17-0.11,0.3-0.23,0.4-0.37c0.07-0.02,0.12-0.06,0.05-0.06c0.51-0.7,0.36-1.63,0.72-2.35c-0.08,0-0.17-0.01-0.25-0.01
		c0.07-0.08,0.15-0.15,0.24-0.22c0.35-0.13,0.69-0.12,1.02,0.08c0,0,0.01,0.01,0.01,0.02c0.02,0.02,0.03,0.04,0.05,0.06
		C76.49,31.2,76.51,31.62,76.33,32.06z"/>
	<path class="st1" d="M80.13,25.3c-0.16-2.5-1.55-4.14-3.96-4.88c-0.54-0.79-1.36-0.78-2.19-0.79c-0.09,0-0.18,0-0.27,0
		c0.05,0.22,0.1,0.44,0.15,0.66c-0.67,0.2-1.33,0.16-1.99-0.03c-0.11-0.2-0.21-0.41-0.32-0.62c-0.14,0-0.29,0-0.43,0.01
		c-0.24,0-0.48,0-0.72,0.03c-0.01,0-0.03,0-0.05,0c-0.12,0.01-0.23,0.03-0.34,0.06c-0.39,0.07-0.75,0.2-1.06,0.43
		c-0.05,0.03-0.09,0.06-0.13,0.11c0.03,0.06,0.07,0.12,0.1,0.18c-0.74,1.03-0.21,2.2-0.37,3.29c-0.16-0.22-0.32-0.43-0.48-0.65
		c0,0.15,0,0.31-0.01,0.46c0,0.06,0,0.12,0,0.18v0.12c0,0.3,0,0.59,0,0.89c0,0,0,0,0,0.01c0.27,0.62,0.21,1.4,0.24,2.08
		c0.12,2.25,0.02,4.5,0.01,6.76c-0.07,0.12-0.14,0.25-0.22,0.37c0.02,0.29,0.05,0.57,0.13,0.85c0.05,0.16,0.11,0.32,0.19,0.48
		c0,0.01,0,0.01,0.01,0.02c0.01,0.01,0.02,0.03,0.03,0.04c0.04-0.05,0.07-0.1,0.11-0.14c0.5,0.2,1.01,0.41,1.51,0.61
		c-0.04,0.15-0.08,0.31-0.13,0.45c0.05,0.02,0.1,0.03,0.16,0.04c0.07,0,0.15,0.01,0.23,0.01c0.36,0,0.7-0.06,0.95-0.31
		c0.07-0.06,0.13-0.14,0.18-0.24c1.64-0.22,1.28-1.46,1.42-2.55c0.11-0.84-0.84-2.24,1-2.38h0.02c0.33,0.01,0.67,0.02,1,0.04
		c0.08,0,0.17,0,0.25,0.01c0.28-0.02,0.56-0.05,0.84-0.07c0.08,0.01,0.16,0.01,0.24,0.01c0.29-0.01,0.55-0.14,0.79-0.31
		C79.33,29.53,80.28,27.69,80.13,25.3z M74.28,24.03v2.45c-1.04-0.77-0.88-1.67-1-2.46C73.62,24.02,73.95,24.03,74.28,24.03z"/>
	<path class="st1" d="M84.3,20.24c2.23,0.61,4.36,0.23,6.48,0.22c1.73,0,1.42,1.25,1.6,2.19c0.21,1.13-0.31,1.86-1.51,1.65
		c-1.91-0.34-2.04,0.71-1.86,2.13c0.33,2.57,0.21,5.13,0.07,7.71c-0.11,1.93-1.32,1.5-2.39,1.48c-1.08-0.02-1.99,0.04-1.96-1.71
		c0.04-2.74-0.36-5.48,0.11-8.22c0.13-0.76-0.09-1.46-1.06-1.34c-1.86,0.24-2.65-0.36-2.47-2.37C81.5,19.6,83.38,20.86,84.3,20.24z"
		/>
	<path class="st1" d="M42.04,49.25c0.03-0.04,0.05-0.07,0.08-0.1c0.83-1.06,1.62-0.74,2.27-0.91c-0.52-0.12-1.04-0.24-1.55-0.37
		c0,0-0.01,0-0.01,0c-3.11-0.75-6.17-1.65-8.91-3.41c-1.89-1.22-3.22-2.88-4.02-5.01c0.96,0.8,1.92,1.6,2.88,2.41
		c0.06,0.06,0.13,0.11,0.19,0.16c0.03-0.01,0.06-0.03,0.09-0.04c0.17-0.09,0.28-0.24,0.32-0.46c-0.05-0.02-0.09-0.05-0.13-0.07
		c-1.94-1.83-4.08-3.5-5.1-6.1c0.17,0.04,0.33,0.08,0.5,0.12c-0.07-0.12-0.13-0.24-0.19-0.37c-0.47-0.51-0.95-0.95-1.69-0.61
		c-0.03,0.01-0.06,0.02-0.08,0.04c0,0,0,0.01-0.01,0.01c0.27,1.05,0.55,2.1,0.85,3.28c-1.53-1.12-1.54-3.04-2.61-4.3
		c-0.01,0-0.02,0.01-0.03,0.02c-0.55,0.46-0.76,1.06-0.66,1.77c0.01,0.01,0.01,0.03,0.02,0.05c0.12-0.05,0.23-0.11,0.35-0.16
		c2.63,4.59,6.14,8.42,10.62,11.84c-2.16-0.1-3.63-0.67-5.62-2.02v-0.07c-0.02,0-0.04,0.01-0.06,0.03
		c-0.61,0.27-0.87,0.77-0.85,1.46c3.95,3.53,8.51,5.73,13.78,6.44c-0.04-0.93-0.65-1.22-1.44-1.47c-0.59-0.18-1.16-0.6-0.37-1.29
		c0.12-0.15,0.24-0.26,0.37-0.35c0,0,0,0,0,0c0.41-0.28,0.86-0.28,1.32-0.23c0.48,0.06,0.97,0.17,1.43,0.1
		c1.11-0.18,2.29,0.14,3.38-0.37H42.04z M32.06,48.3c0.11-0.15,0.22-0.3,0.33-0.45c1.87,0.95,3.75,1.9,5.62,2.85
		C35.73,50.53,33.98,49.25,32.06,48.3z M36.24,49.1c1.5-0.46,2.2,0.43,2.92,1.35C38.19,50.01,37.21,49.55,36.24,49.1z"/>
	<path class="st1" d="M25.55,29.19c-0.07,0.72-0.29,1.43-0.35,2.16c-0.01,0.06-0.01,0.12-0.02,0.19c-0.1-0.09-0.22-0.16-0.37-0.22
		c-0.38,0.74,0.09,1.44,0.09,2.16v0c0,0.01,0,0.03-0.01,0.05c-0.09,0.55-0.19,1.11-0.29,1.66c-0.12,0.05-0.23,0.11-0.35,0.16
		c-0.18,0.08-0.36,0.17-0.54,0.25c-0.19,0.12-0.31,0.24-0.38,0.36c-0.84,0.18-1.69,0.24-2.53-0.17c-1.2-1.09-0.79-2.59-0.82-3.87
		c-0.06-3.42,0.15-6.83,0.19-10.25c0.01-0.98,0.47-1.37,1.35-1.45c1.37-0.73,2.58-0.88,3.42,0.52v0c0.07,0.11,0.13,0.23,0.19,0.36
		c0.04,0.11,0.07,0.22,0.09,0.33c0,0,0,0,0,0c0.03,0.13,0.05,0.27,0.06,0.4c0,0.02,0,0.05,0,0.07c-0.11,0.06-0.21,0.13-0.32,0.18
		v0.03c-0.04,1.47-0.08,2.93-0.12,4.4v0c0.02,0.6,0.05,1.19,0.07,1.79C25.13,28.61,25.33,28.89,25.55,29.19z"/>
	<path class="st1" d="M68.82,10.1c-0.12,0.54-0.45,0.9-0.92,1.13h0c-0.04-0.04-0.08-0.08-0.12-0.12c-0.75-0.48-1.51-0.95-2.26-1.43
		c-0.16-0.06-0.32-0.12-0.49-0.18c-0.24-0.38-0.56-0.72-0.92-0.86c-0.06-0.02-0.13-0.04-0.19-0.06c-0.08-0.02-0.17-0.03-0.26-0.03
		c-0.35,0.01-0.68-0.01-1-0.06c0,0,0,0,0,0c-0.05-0.01-0.09-0.01-0.14-0.02c-0.21-0.04-0.42-0.09-0.61-0.14c0,0-0.01,0-0.01,0
		c-0.16-0.05-0.3-0.09-0.45-0.15c-1.32-0.45-2.54-1.2-3.9-1.48c-0.11-0.02-0.21-0.04-0.31-0.06C57.11,6.63,57,6.61,56.88,6.6
		c-0.16-0.01-0.32-0.04-0.48-0.07c-0.07-0.01-0.15-0.03-0.22-0.05c-0.03-0.02-0.06-0.03-0.1-0.05c0.16-0.06,0.31-0.16,0.44-0.34
		c-4.32-2.81-9.16-2.51-13.98-2.34c-0.33,0.1-0.66,0.2-0.99,0.31c-0.6-0.24-0.84-0.68,0-1.69c3.13-0.52,6.31-0.74,9.63-1.74
		c-0.33,1.12-1.34,0.94-1.73,1.61C56.66,3.05,63.54,4.64,68.82,10.1z"/>
	<path class="st1" d="M38.15,4.46c-0.1,0.05-0.2,0.1-0.31,0.14c-1.07,0.35-2.14,0.69-3.21,1.04c0.23-0.32,0.49-0.59,0.76-0.8
		c-0.24,0.11-0.47,0.22-0.7,0.33c-0.52-0.14-0.72,1.46-1.44,0.27c-5.31,3.82-9.13,8.82-11.72,14.79c1.22,0.29,2.95-0.52,3.35,1.54
		c0.16-0.08,0.28-0.19,0.36-0.32c0,0,0,0,0,0c0.17-0.24,0.23-0.54,0.29-0.84c0.01-0.28,0.04-0.55,0.08-0.83
		c-0.18,0.15-0.38,0.3-0.61,0.43c0.17-1.47,0.48-2.9,1.35-4.15c0.11,0.28,0.19,0.55,0.24,0.82c0.03-0.07,0.06-0.14,0.1-0.21
		c0.1-0.72,0.61-0.47,1.02-0.47c0-0.03-0.01-0.06-0.02-0.1c0.67-2.43,2.63-3.58,4.66-4.67c0.05-0.01,0.09-0.01,0.13-0.03
		c0-0.21-0.07-0.41-0.18-0.59c-0.01-0.01-0.01-0.02-0.02-0.04c-0.01-0.02-0.01-0.04-0.02-0.06c-0.15,0.09-0.31,0.19-0.45,0.29
		c-1.79-0.18-0.57-0.88-0.18-1.3c1.91-2.01,4.25-3.43,6.71-4.66c0.02,0,0.04,0.01,0.06,0.01c0.02-0.01,0.03-0.03,0.03-0.04
		c0.02-0.02,0.04-0.04,0.05-0.06C38.42,4.74,38.31,4.58,38.15,4.46z M27.36,14.08c0.17-1.1,0.65-1.77,1.71-2.61
		C28.83,12.8,28.48,13.55,27.36,14.08z"/>
	<path class="st1" d="M29.6,44.94v0.07c-0.3,0.47-0.6,0.94-0.91,1.41c-2.49-2.32-4.73-4.84-6.5-7.77c0.06-0.04,0.12-0.08,0.19-0.13
		c0.41-0.34,0.66-0.88,1.23-1.03c0,0.07,0,0.14-0.01,0.21c1.61,2.72,3.54,5.18,5.94,7.26C29.57,44.96,29.59,44.95,29.6,44.94z"/>
	<path class="st1" d="M73.45,18.52c-0.01-0.04-0.02-0.08-0.03-0.12c-1.34-2.78-3.47-4.95-5.53-7.17h0
		c-0.04-0.04-0.08-0.08-0.12-0.12c0.19-0.5,0.55-0.82,1.04-1.01c2.27,2.05,4.31,4.31,5.87,6.96C74.8,18.01,74.2,18.33,73.45,18.52z"
		/>
	<path class="st1" d="M91.65,50.47c1.24-0.93,0.97-2.25,0.92-3.52c0.23-1.19,0.37-2.41,0.73-3.56c0.21-0.66,0.54-1.64,1.52-1.38
		c0.94,0.25,1.23,1.03,0.81,1.97c-0.83,0.09-0.43-0.93-1.11-1.05c-1.01,1.85-0.87,3.93-1.02,5.95c-0.08,1.11,0.76,0.63,1.27,0.71
		c0.4-0.15,0.64-0.06,0.62,0.42c-0.61,0.19-1.22,0.39-1.82,0.58c-0.4,0.19-0.01,1.12-0.85,0.9C92.66,50.84,92.19,50.61,91.65,50.47z
		"/>
	<path class="st1" d="M42.55,3.76c-0.33,0.1-0.66,0.2-0.99,0.31c-1.05,0.32-2.1,0.64-3.15,0.97c0,0.01-0.01,0.03-0.03,0.04
		c-0.02,0-0.04-0.01-0.06-0.01C38.16,4.9,38,4.75,37.84,4.61c0.1-0.05,0.2-0.1,0.31-0.14c0.7-0.33,1.39-0.66,2.09-0.98
		c-1.65,0.38-3.48,0.28-4.84,1.36c0,0,0,0,0,0c-0.27,0.22-0.53,0.48-0.76,0.8c-0.42,0.7-1.09,0.99-1.89,1.18
		c-0.25-0.64,0.52-0.88,0.51-1.38c2.4-2.01,5.25-2.83,8.3-3.07C41.24,3.3,41.39,3.89,42.55,3.76z"/>
	<path class="st1" d="M77.02,30.51c-0.39,3.69-1.92,6.93-3.92,9.99c-2.14-1.14-0.3-1.92,0.25-2.83c0.3-0.16,0.54-0.35,0.75-0.56
		c0.83-0.82,1.06-1.95,1.34-3.05c0-0.01,0-0.02,0.01-0.03c0.15-0.62,0.32-1.22,0.62-1.77c-0.02-0.49-0.04-0.98-0.06-1.46
		c0.06-0.02,0.12-0.04,0.18-0.06C76.46,30.68,76.73,30.59,77.02,30.51z"/>
	<path class="st1" d="M108.45,53.38c-1.43,1.21-2.3,0.74-2.96-0.27c-1.16-1.8,0.56-5.37,2.68-5.64c0.58-0.08,1.2-0.05,1.2,0.65
		c0.01,0.64-0.47,1.33-1.17,1.06c-2.11-0.81-1.78,1.06-2.02,1.92C105.79,52.54,106.51,53.45,108.45,53.38z"/>
	<path class="st1" d="M114.64,51.69c-1.33-1.43-1.59,0.46-2,0.85c-1.14,1.08-2.06,1.67-3.27,0.09c1.4-0.72,1.56-2.65,3.09-3.39
		c0.25,0.09,0.46,0.22,0.56,0.45c0.01,0.02,0.02,0.04,0.03,0.06c-0.05-0.02-0.09-0.05-0.12-0.08c-0.43,0.75-1.49,1.16-1.38,2.33
		c1.14-0.36,1.53-1.34,2.27-1.92c-0.03-0.04-0.06-0.08-0.1-0.11c0.04,0,0.08,0,0.12,0c0.11,0,0.22,0.02,0.34,0.06
		C114.83,50.45,115.33,50.9,114.64,51.69z"/>
	<path class="st1" d="M95.39,50c-0.21-0.14-0.41-0.28-0.62-0.42c0.11-0.09,0.22-0.2,0.35-0.27c1.36-0.83,2.93-2.39,2.3,1.16
		c-0.18,1.03,0.72,0.02,1.12-0.11c0.26,0.2,0.3,0.43,0.11,0.71c-0.02,0.07-0.01,0.17-0.05,0.22c-0.56,0.68-0.63,2.19-1.47,2.06
		c-1.08-0.17-0.43-1.52-0.57-2.34C96.43,50.31,96.47,49.56,95.39,50z"/>
	<path class="st1" d="M23.62,37.5c0,0.07,0,0.14-0.01,0.21c-0.41,0.28-0.81,0.55-1.22,0.82c-0.06,0.05-0.12,0.09-0.19,0.13
		c-0.69-0.85-1.17-1.79-1.39-2.87c0.96-0.25,1.93-0.33,2.91-0.19c-0.19,0.12-0.31,0.24-0.38,0.36
		C23.06,36.45,23.58,36.99,23.62,37.5z"/>
	<path class="st1" d="M65.08,49.7c-2.11,1.96-4.65,3.01-7.44,3.54c0-0.1,0-0.2,0-0.3c0.25-0.32,0.58-0.48,0.93-0.59c0,0,0,0,0,0
		c0.42-0.13,0.86-0.2,1.23-0.42c0.78-0.48,1.86-0.5,2.5-1.2c0.16-0.17,0.29-0.38,0.39-0.64C63.4,49.34,64.16,49.06,65.08,49.7z"/>
	<path class="st1" d="M76.17,20.41c-0.77-0.05-1.54-0.09-2.31-0.14c-0.05-0.22-0.1-0.44-0.15-0.66c-0.08-0.37-0.17-0.73-0.25-1.1
		c-0.01-0.04-0.02-0.08-0.03-0.12c0.42-0.45,0.85-0.9,1.27-1.35C75.52,18.02,76.09,19.11,76.17,20.41z"/>
	<path class="st1" d="M114.99,52.26c-0.01,0.11-0.27-0.34-0.35-0.57c0.35-0.85-0.55-1.07-0.82-1.6c-0.03-0.04-0.06-0.08-0.1-0.11
		c0.04,0,0.08,0,0.12,0c0.28-1.26-0.48-0.34-0.82-0.29c0.01,0.02,0.02,0.04,0.03,0.06c-0.05-0.02-0.09-0.05-0.12-0.08
		c-0.16-0.14-0.31-0.29-0.47-0.43c0.78-0.62,1.63-1.83,2.62-0.88C116.22,49.47,115.1,50.95,114.99,52.26z"/>
	<path class="st1" d="M103.73,53.51c0-1.54-0.01-3.09,0.01-4.63c0.01-0.4,0.23-0.73,0.7-0.71c0.35,0.02,0.58,0.3,0.53,0.62
		c-0.25,1.59-0.53,3.17-0.81,4.76C104.02,53.54,103.87,53.53,103.73,53.51z"/>
	<path class="st1" d="M98.65,51.07c-0.04-0.24-0.08-0.47-0.11-0.71c0.82-1.78,2-2.91,4.28-2.14C100.76,48.3,99.83,49.85,98.65,51.07
		z"/>
	<path class="st1" d="M92.72,51.48c0.28-0.3,0.57-0.6,0.85-0.9c0,1.57,0,3.14,0,4.94C92.19,54.23,92.74,52.8,92.72,51.48z"/>
	<path class="st0" d="M87.53,44.33c0.92,3.27,2.96,5.93,2.84,9.59c-1.51-0.93-0.49-3.74-3-3.28c-2.64,0.48-1.06,2.95-1.96,4.29
		C84.38,52.94,85.37,47.73,87.53,44.33z"/>
	<path class="st1" d="M49.57,32.44c-0.22-0.46-0.71-0.79-1.01-1.23c-0.58-0.85-1.09-1.56,0.34-2.34c1.95-1.08,2.12-3.09,1.64-5.02
		c-0.45-1.85-1.69-3.06-3.73-3.11c-2.12-0.05-4.24-0.02-6.35-0.02c-1.11,0-1.14,0.8-1.14,1.59c-0.01,3.9,0,7.79-0.04,11.69
		c-0.01,1,0.26,1.53,1.37,1.64c2.53,0.24,2.88-0.07,2.72-2.69c-0.04-0.65-0.3-1.33,0.24-2.18c1.24,1.06,1.48,2.5,2.27,3.6
		c0.75,1.05,4.3,1.97,4.91,1.09C51.7,34.11,50.04,33.43,49.57,32.44z M44.37,27.49c-1.48-0.03-0.95-1.24-1.03-2.05
		c-0.08-0.9-0.02-1.74,1.28-1.59c1.06,0.11,1.95,0.54,1.89,1.75C46.45,26.86,45.58,27.52,44.37,27.49z"/>
	<path class="st1" d="M68.43,25.7c-0.03-0.62-0.04-1.42-0.37-1.86c-0.24-0.33-0.67-0.46-1.43-0.19c-0.02,0.01-0.05,0.02-0.07,0.03
		c-0.09,0.03-0.19,0.07-0.3,0.12c-1,2.27-0.27,4.68-0.56,7.01c-0.31,2.49-1.64,3.95-4,4.32c-3.69,0.58-6.49-0.37-7.5-2.54
		c-0.19-0.42-0.34-0.86-0.37-1.32c-0.22-2.89-0.13-5.8-0.06-8.69c0.02-0.84,0.36-1.49,1.33-1.55c0.99-0.06,1.6,0.4,1.78,1.38
		c0.19,0.98,0.13,1.98,0.08,2.97c-0.09,1.68-0.07,3.36,0.19,5.03c0.2,1.24,0.94,2.09,2.25,2.26c1.29,0.18,2.2-0.44,2.79-1.56
		c0.51-0.97,0.68-2.02,0.71-3.1c0.04-1.53,0.05-3.05,0.01-4.58c-0.03-1.39,0.43-2.37,1.82-2.81c0.15-0.12,0.25-0.24,0.33-0.37
		c0.01-0.01,0.02-0.03,0.02-0.04c0.09-0.15,0.13-0.31,0.14-0.45c0.02-0.49-0.35-0.95-0.68-1.32c-2.07-2.36-4.29-4.52-6.89-6.19
		c-1.27-0.82-2.63-1.52-4.11-2.06h0c-0.01,0-0.02-0.01-0.04-0.01c-0.02-0.01-0.04-0.01-0.06-0.02c-0.03-0.01-0.06-0.02-0.08-0.03
		c-0.03-0.01-0.06-0.02-0.09-0.03c-1.3-0.16-2.6-0.07-3.91-0.09c-0.35,0-0.7,0-1.04,0c-0.35,0-0.69,0.02-1.03,0.04
		c-6.34,0.37-11.67,3-16.01,7.91c-0.55,0.63-1.23,1.19-0.99,2.18c0,0,0.01,0.01,0.01,0.02c0.01,0.01,0.02,0.03,0.03,0.04
		c0.23,0.31,0.55,0.44,0.92,0.45c1.15,0.03,2.3,0.03,3.39,0.43c0.67,0.24,1.35,0.57,1.06,1.46c-0.22,0.67-0.8,0.87-1.48,0.74
		c-0.53-0.1-1.04-0.27-1.59-0.21c-0.79,0.08-1.58,0.3-1.83,1.13c-0.26,0.88,0.38,1.41,1.05,1.83c0.72,0.45,1.56,0.61,2.34,0.93
		c3.05,1.27,3.64,4.71,1.26,7.05c-0.92,0.9-2.14,1.13-3.18,1.75c-0.03,0.04-0.06,0.09-0.08,0.13c-0.02,0.03-0.03,0.06-0.04,0.08
		c-0.19,0.37-0.16,0.78,0.1,1.06c2.39,2.65,4.59,5.55,8.08,6.9c0.13,0.05,0.27,0.1,0.4,0.15c-0.08-0.07-0.17-0.14-0.25-0.21
		c-0.2-0.18-0.41-0.35-0.62-0.51c-2.92-2.07-5.73-4.25-7.6-7.39c0.22-0.05,0.44-0.09,0.67-0.14c2.99-0.6,4.43-2.13,4.54-4.86
		c0.12-2.91-0.65-3.82-4.05-4.8c-0.29-0.08-0.56-0.27-0.85-0.31c-0.9-0.12-1.56-0.67-1.34-1.49c0.25-0.95,1.18-1.06,2.08-0.78
		c0.37,0.12,0.77,0.19,1.06,0.41c1.32,0.95,1.57-0.22,1.92-0.99c0.37-0.84,0.65-1.67-0.59-2.22c-1.75-0.78-3.54-0.72-5.36-0.6
		c0.72-1.68,2.1-2.81,3.42-3.95c5.68-4.93,12.42-6.29,19.72-5.65c4.61,2.31,8.63,5.31,11.51,9.67c-2.29-0.2-2.99,0.81-2.82,3.08
		c0.16,2.26,0.26,4.55-0.17,6.83c-0.29,1.5-1.11,2.16-2.51,2.05c-1.34-0.11-1.96-0.95-1.95-2.34c0.01-2.59-0.12-5.19-0.05-7.79
		c0.05-1.57-0.8-1.79-2.01-1.73c-1.16,0.06-2.56-0.34-2.49,1.7c0.1,2.98-0.08,5.96,0.07,8.93c0.14,2.73,1.79,4.29,4.66,4.83
		c3.55,0.67,6.97-0.35,8.03-2.46c0.41-0.81,0.59-1.7,0.6-2.65c0.02-2.32,0.15-4.65,0.23-6.98c0.82,0.14,1.23,0.52,1.44,1
		c0,0,0,0,0,0.01c0.27,0.62,0.21,1.4,0.24,2.08c0.12,2.25,0.02,4.5,0.01,6.76c-0.07,0.12-0.14,0.25-0.22,0.37
		c-2.31,4.01-5.59,6.96-9.76,9.06c-3.92,1.98-8.06,2.55-12.29,2.61c0,0-0.01,0-0.01,0c-0.73,0.01-1.45,0-2.18-0.01
		c1.15,0.03,2.28,0.29,3.42,0.43c0,0,0.01,0,0.01,0c0.22,0.03,0.45,0.05,0.67,0.06h0c0.44,0.03,0.89,0.04,1.34-0.01
		c6.04-0.63,11.44-2.79,15.75-7.14c1.04-1.04,2.19-2.08,2.86-3.4c0.12-0.24,0.23-0.5,0.31-0.77c0.11-0.34,0.19-0.7,0.22-1.09v-0.03
		c0.01-0.12,0.02-0.25,0.02-0.38v-0.08C68.48,30.71,68.57,28.2,68.43,25.7z"/>
	<path class="st1" d="M50.93,46.26c-0.82,0.13-1.71-0.09-2.5,0.15h0c-0.27,0.08-0.52,0.22-0.76,0.44c-0.03-0.31,0.03-0.5,0.14-0.62
		c0.05-0.06,0.1-0.09,0.16-0.12h0c0.25-0.12,0.61-0.07,0.91-0.1c5.92-0.54,11.18-2.59,15.61-6.64c1.27-1.16,1.99-2.83,3.43-3.81
		c0.16-0.11,0.33-0.21,0.5-0.29c0.05-0.03,0.1-0.06,0.15-0.08c-0.03,0.05-0.07,0.1-0.11,0.14C64.11,41.36,58.3,45.01,50.93,46.26z"
		/>
	<path class="st1" d="M69.51,38.02c-3.18,3.69-6.85,6.67-11.54,8.1c0,0,0,0,0,0c-0.39,0.12-0.79,0.23-1.21,0.33
		c0.25-0.13,0.51-0.26,0.76-0.38c3.12-1.59,6.23-3.19,8.89-5.54c1.41-1.25,2.9-2.42,3.54-4.27c0.05-0.14,0.1-0.3,0.13-0.45
		c0.13,0.18,0.21,0.34,0.25,0.49C70.52,37.01,69.93,37.54,69.51,38.02z"/>
	<path class="st1" d="M40.21,45.44c-0.07-0.01-0.14-0.03-0.21-0.04c-2.63-0.53-4.97-1.65-7.02-3.37c-0.06-0.05-0.13-0.11-0.19-0.16
		c0.1,0.04,0.19,0.08,0.29,0.12c2.36,0.98,4.69,2.06,6.91,3.33C40.05,45.35,40.13,45.4,40.21,45.44z"/>
	<path class="st1" d="M68.57,35.2c-0.03,0.05-0.07,0.1-0.11,0.14c-4.35,6.02-10.16,9.67-17.53,10.93c-0.82,0.13-1.71-0.09-2.5,0.15
		h0c-0.27,0.08-0.52,0.22-0.76,0.44c-1.27-0.42-2.53-0.83-3.79-1.25c0.73,0.01,1.46,0.02,2.18,0.01c0,0,0,0,0.01,0
		c4.23-0.06,8.37-0.63,12.29-2.61c4.17-2.1,7.45-5.05,9.76-9.06c0.08-0.12,0.15-0.25,0.22-0.37l0.13,0.01c0,0.03,0,0.06,0,0.09v0.03
		C68.49,34.2,68.53,34.7,68.57,35.2z"/>
	<path class="st1" d="M71.29,36.2c-0.67,0.91-0.98,1.9-0.88,2.98c0.02,0.27,0.07,0.55,0.15,0.84c-0.32,0.57-0.88,0.43-1.38,0.45
		c0.01-0.15,0.02-0.29,0.02-0.4c0-0.78-0.28-0.99-1.09-0.13c-2,2.09-4.31,3.77-6.86,5.13c-0.25,0.13-0.59,0.26-0.62,0.52
		c-0.02,0.12,0.03,0.26,0.17,0.45c-1.26,0.95-2.62,0.98-4.04,0.42c0.25-0.13,0.51-0.26,0.76-0.38c3.12-1.59,6.23-3.19,8.89-5.54
		c1.41-1.25,2.9-2.42,3.54-4.27c0.05-0.14,0.1-0.3,0.13-0.45c0.4-0.01,0.81-0.03,1.21-0.05c0.06,0,0.12,0,0.18,0l0.03,0.17
		C71.42,36.02,71.35,36.11,71.29,36.2z"/>
	<path class="st1" d="M36.56,42.68c0.15,0.11,0.31,0.21,0.47,0.31c-0.04-0.02-0.08-0.05-0.11-0.07
		C36.8,42.84,36.68,42.77,36.56,42.68z"/>
	<path class="st1" d="M40.76,44.06c-0.18,0.03-0.37,0.06-0.55,0.1c-0.05,0.03-0.1,0.06-0.15,0.07c-0.39,0.16-0.76-0.01-1.14-0.14
		c-0.04-0.02-0.08-0.04-0.12-0.06c0.12-0.07,0.24-0.18,0.36-0.33c-3.34-1.88-5.84-4.65-8.11-7.66c-0.05-0.01-0.1-0.02-0.15-0.04
		c0.03-0.1,0.08-0.2,0.15-0.31c0.44-0.2,0.84-0.21,1.17,0.16c0.02,0.02,0.05,0.05,0.06,0.07c1.87,3.15,4.68,5.32,7.6,7.39
		c0.22,0.16,0.42,0.33,0.62,0.51C40.59,43.93,40.68,44,40.76,44.06z"/>
	<path class="st1" d="M40.21,45.44c-0.07-0.01-0.14-0.03-0.21-0.04c-2.63-0.53-4.97-1.65-7.02-3.37c-0.06-0.05-0.13-0.11-0.19-0.16
		c0.16-0.14,0.32-0.27,0.48-0.41c0.05,0.02,0.09,0.05,0.13,0.07c1.22,0.68,2.41,1.42,3.67,2c0.52,0.24,1.1,0.9,1.74,0.52
		c0.12-0.07,0.24-0.18,0.36-0.33c0.32,0.14,0.63,0.27,0.94,0.41c0.03,0.02,0.07,0.03,0.1,0.05C40.43,44.59,40.53,45.02,40.21,45.44z
		"/>
	<path class="st1" d="M71.87,20.25c-0.29-0.18-0.53-0.38-0.74-0.61c-0.77-0.82-1.19-1.9-1.87-2.8c-0.08-0.11-0.18-0.22-0.27-0.33
		c-0.05-0.06-0.1-0.11-0.16-0.17c-1.3-2.09-3.49-3.3-5.08-5.11c-0.55-0.62-1.3-1.1-1.58-1.95c-0.01-0.03-0.02-0.07-0.03-0.11
		c-0.01-0.02-0.01-0.04-0.02-0.06c0.06-0.3,0.22-0.49,0.46-0.6c0.02-0.01,0.04-0.02,0.06-0.03c0,0,0,0,0,0
		c0.05-0.02,0.09-0.04,0.14-0.05c0.39,0,0.77,0.04,1.12,0.14c0.06,0.01,0.13,0.03,0.19,0.06c0.55,0.18,1.02,0.5,1.4,1.04
		c-0.16-0.06-0.32-0.12-0.49-0.18c-0.77-0.28-1.54-0.57-2.32-0.85c-0.27,0.1-0.47,0.25-0.44,0.58c2.4,2.19,5.04,4.14,6.92,6.86
		c1.18,0.93,1.72,2.26,2.35,3.54C71.66,19.83,71.76,20.04,71.87,20.25z"/>
	<path class="st1" d="M68.01,18.07c0,0-0.01-0.01-0.01-0.02v0c-0.17-0.24-0.34-0.47-0.52-0.69c-2.14-2.72-5.03-4.44-8.17-5.82
		c-0.55-0.24-1.25-0.59-1.63,0.13c-0.11,0.21-0.1,0.4-0.02,0.58c0.12,0.28,0.42,0.53,0.69,0.73c0.37,0.27,0.76,0.53,1.1,0.82
		c2.11,1.81,4.32,3.54,5.78,5.96c0.06,0.1,0.12,0.2,0.18,0.31c0.05,0.07,0.08,0.14,0.12,0.21c0,0,0,0,0,0.01
		c0.3,0.51,0.63,1,0.99,1.47c0.02,0.03,0.05,0.06,0.07,0.1c0.06,0.06,0.12,0.13,0.18,0.2c0.43,0.5,0.71,1.15,1.29,1.49
		c0.14,0.09,0.31,0.16,0.49,0.2v0c-0.16-0.22-0.32-0.43-0.48-0.65c-0.41-0.56-0.83-1.12-1.24-1.68c-0.25-0.36-0.51-0.72-0.76-1.08
		c-1.97-3.51-5.24-5.83-8.1-8.53c4.01,1.18,7.15,3.56,9.8,6.65c0.36,0.6,0.7,1.21,1.05,1.82c0.03,0.06,0.07,0.12,0.1,0.18
		c0.02-0.1,0.03-0.19,0.03-0.28C68.97,19.34,68.44,18.72,68.01,18.07z"/>
	<path class="st1" d="M70.42,20.25c-0.5,0.06-0.99,0.13-1.49,0.19c-0.03-0.06-0.07-0.12-0.1-0.18c-0.35-0.61-0.7-1.22-1.05-1.82
		c-0.11-0.36-0.18-0.73-0.29-1.09c-0.12-0.4-0.29-0.78-0.6-1.1c0.15,0.02,0.33-0.02,0.55-0.15c-1.49-2.74-3.82-4.56-6.54-5.97
		c-0.07-0.02-0.14-0.05-0.21-0.06v-0.01c0.26-0.73,0.72-1.09,1.47-0.88c0.05,0.01,0.09,0.02,0.13,0.04c2.4,2.19,5.04,4.14,6.92,6.86
		c-0.02,0.26,0.01,0.51,0.06,0.75c0.22,0.99,0.89,1.84,1.1,2.83C70.4,19.86,70.42,20.05,70.42,20.25z"/>
	<path class="st1" d="M68.48,33.3c-0.01,0.1-0.02,0.19-0.03,0.29l-0.13-0.01c0.01-2.26,0.12-4.51-0.01-6.76
		c-0.04-0.67,0.02-1.46-0.24-2.08c0,0,0,0,0-0.01c-0.21-0.49-0.62-0.86-1.44-1c-0.02-0.02-0.04-0.04-0.06-0.05
		c-0.83-0.72-0.54-1.33-0.04-1.92c0.1-0.12,0.21-0.24,0.31-0.35c0.41,0.56,0.83,1.12,1.24,1.68c0.16,0.22,0.32,0.43,0.48,0.65v0
		C68.65,26.93,68.76,30.11,68.48,33.3z"/>
	<path class="st1" d="M75.62,25.96c-0.26,0.98-1.25,1.34-2.01,1.05c-1.86-0.7-0.94-1.91-0.32-3c0.12,0.79-0.05,1.69,1,2.46v-2.45
		C75.43,24.19,75.89,24.91,75.62,25.96z"/>
	<path class="st1" d="M71.87,20.25h-1.45c-0.12-0.18-0.26-0.35-0.4-0.52c-0.75-0.95-1.54-1.89-1.03-3.22
		c0.06-0.13,0.12-0.28,0.21-0.43c1.18,0.93,1.72,2.26,2.35,3.54C71.66,19.83,71.76,20.04,71.87,20.25z"/>
	<path class="st1" d="M71.3,31.89c-0.97-0.85-0.44-1.83-0.66-2.66c-0.16-0.64,0.53-0.81,1.02-0.98c0.51-0.18,0.88,0.15,1.14,0.52
		c0.57,0.81-0.34,0.87-0.67,1.03C71.2,30.24,71.65,31.13,71.3,31.89z"/>
	<path class="st1" d="M37.5,30.95c-0.12,2.73-1.55,4.26-4.54,4.86c-0.23,0.05-0.45,0.09-0.67,0.14c-0.04,0-0.07,0-0.11,0.01
		c-0.37,0.03-0.75,0.07-1.13,0.1c-0.05-0.01-0.1-0.02-0.15-0.04c-0.75-0.18-1.5-0.37-2.25-0.55c-0.17-0.04-0.33-0.08-0.5-0.12
		c-0.46-0.29-0.92-0.57-1.38-0.86c-0.04-0.02-0.08-0.05-0.12-0.07v0c-0.12-0.3-0.23-0.6-0.35-0.89c-0.14-0.1-0.24-0.21-0.32-0.35
		c0.02-0.14,0.06-0.28,0.12-0.41c0,0,0,0,0,0c0.17-0.46,0.47-0.87,0.74-1.29c0.02-0.03,0.04-0.05,0.06-0.08
		c0.06,0.18,0.13,0.36,0.23,0.54c0.29-0.37,0.58-0.74,0.86-1.11c-0.04-0.09-0.07-0.18-0.11-0.28c0.28-0.09,0.56-0.11,0.85-0.06
		c0.03,0.12,0.06,0.23,0.08,0.35c0.5,0.45,0.94,1.04,1.53,1.32c1.03,0.49,2.32,0.92,2.97-0.42c0.69-1.42-0.46-1.94-1.62-2.35
		c-1.21-0.43-2.37-0.96-3.55-1.45c0,0,0,0,0,0.01c-0.03,0.18-0.04,0.36-0.02,0.53c-0.11-0.08-0.21-0.17-0.31-0.26
		c-0.8-0.79-1.28-1.63-1.43-2.55c0-0.3-0.02-0.6-0.05-0.9v0c0,0,0,0,0-0.01c0.04-0.54,0.18-1.1,0.42-1.69
		c0.09-0.18,0.18-0.36,0.27-0.53c0.05,0.2,0.11,0.41,0.18,0.61c0.59-0.79,1.18-1.59,1.77-2.38c0,0,0,0,0,0
		c0.14-0.23,0.28-0.46,0.43-0.68c0.29-0.1,0.59-0.11,0.92,0.06c0.02,0.01,0.04,0.02,0.06,0.03c1.82-0.12,3.61-0.18,5.36,0.6
		c1.23,0.55,0.96,1.38,0.59,2.22c-0.35,0.77-0.6,1.94-1.92,0.99c-0.3-0.21-0.7-0.29-1.06-0.41c-0.9-0.28-1.83-0.17-2.08,0.78
		c-0.22,0.83,0.44,1.37,1.34,1.49c0.3,0.04,0.56,0.23,0.85,0.31C36.86,27.13,37.62,28.04,37.5,30.95z"/>
	<path class="st1" d="M29.6,44.94v0.07c-0.02-0.01-0.04-0.03-0.06-0.05C29.57,44.96,29.59,44.95,29.6,44.94z"/>
	<path class="st1" d="M26.3,33.51c-0.14-0.1-0.24-0.21-0.32-0.35c-0.32-0.51-0.33-1.23-0.8-1.63c-0.1-0.09-0.22-0.16-0.37-0.22
		c0.14,0,0.27,0,0.38,0.03c0.79,0.13,0.82,0.79,0.9,1.41c0,0,0,0,0,0C26.13,33.04,26.18,33.3,26.3,33.51z"/>
	<path class="st1" d="M28.79,17.16c-1.53,1.58-2.27,3.29-1.77,5.36c0,0,0,0,0,0c0.05,0.2,0.11,0.41,0.18,0.61
		c-0.51,1.76-0.41,3.4,0.94,4.79c0,0,0,0,0,0.01c-0.03,0.18-0.04,0.36-0.02,0.53c0.06,0.7,0.43,1.33,0.61,2
		c0.03,0.12,0.06,0.23,0.08,0.35c-0.27,0-0.55-0.01-0.83-0.01c-0.04-0.09-0.07-0.18-0.11-0.28c-0.19-0.6-0.27-1.26-0.95-1.67
		c0,0.06-0.01,0.12-0.02,0.19c0,0,0,0-0.01,0c-0.1-0.3-0.24,0.2-0.01,0c0,0.01,0.01,0.01,0.01,0.02v0c-0.1,0.8-0.22,1.57,0,2.32
		c0.06,0.18,0.13,0.36,0.23,0.54c-0.27,0.53-0.55,1.06-0.81,1.59c-0.14-0.1-0.24-0.21-0.32-0.35c-0.32-0.51-0.33-1.23-0.8-1.63
		c-0.1-0.09-0.22-0.16-0.37-0.22h0c0.04-1,0.08-2,0.12-3c0.2,0.29,0.4,0.57,0.62,0.87c0.06,0.07,0.11,0.15,0.16,0.22
		c0.53-1.25,0.69-2.5,0.66-3.75c0-0.3-0.02-0.6-0.05-0.9v0c0,0,0,0,0-0.01c-0.06-0.78-0.18-1.57-0.31-2.35
		c-0.12-0.78-0.41-0.66-0.72-0.48c-0.11,0.06-0.21,0.13-0.32,0.18v0.02c0,0-0.01-0.01-0.01-0.01c0,0,0,0,0,0
		c-0.15-0.08-0.17-0.19-0.08-0.33v0c0.03-0.34,0.05-0.67,0.07-1.01v0c0.01-0.18,0.03-0.36,0.04-0.54c0.23-0.13,0.43-0.28,0.61-0.43
		c0.92-0.77,1.21-1.75,0.98-2.9c-0.05-0.26-0.13-0.54-0.24-0.82c0.48-1.1,0.91-0.4,1.34,0.04c0,0.03,0.01,0.06,0.02,0.1
		c0.13,0.55,0.37,0.6,0.83,0.16c2.24-2.19,4.7-4.06,7.47-5.55c0.4-0.22,0.58-0.49,0.02-0.76c-0.38,0.18-0.76,0.37-1.14,0.54
		c0.36-0.29,0.71-0.57,1.06-0.86c0.52-0.31,0.94-0.55,1.28-0.69c0.01,0,0.03-0.01,0.05-0.02c0.19-0.09,0.37-0.14,0.51-0.16
		c0.01,0,0.02,0,0.03,0c0.59-0.08,0.85,0.32,1.09,1.27v0c0.01,0.04,0.02,0.07,0.03,0.12c-0.04-0.03-0.08-0.06-0.12-0.09
		C35.23,12.16,31.69,14.19,28.79,17.16z"/>
	<path class="st1" d="M24.97,22.1v0.03c-0.04,1.47-0.08,2.93-0.12,4.4C24.75,25.05,24.57,23.57,24.97,22.1
		C24.96,22.11,24.96,22.11,24.97,22.1C24.97,22.1,24.97,22.1,24.97,22.1z"/>
	<path class="st1" d="M24.97,22.06c0,0.01-0.01,0.03-0.01,0.04h0C24.96,22.09,24.97,22.08,24.97,22.06z"/>
	<path class="st1" d="M24.97,22.06v0.06c-0.04,1.47-0.08,2.93-0.12,4.4c-0.35-1.49-0.48-2.96,0.1-4.42
		C24.96,22.09,24.97,22.08,24.97,22.06z"/>
	<path class="st1" d="M38.38,5.07c-0.02,0-0.04-0.01-0.06-0.01c0.03-0.01,0.06-0.02,0.09-0.03C38.4,5.04,38.39,5.05,38.38,5.07z"/>
	<path class="st1" d="M56.52,6.09c-0.02,0.18-0.06,0.32-0.12,0.43C56.09,7.23,55.33,7,54.7,7.05c-0.09,0.01-0.18,0.02-0.26,0.05
		c-0.1,0-0.19,0.01-0.29,0.01c-0.55,0.03-1.11,0.01-1.66,0c-2.05,0.07-4.11-0.23-6.14,0.23C43.39,7.4,40.57,8,37.81,8.85
		c-0.01,0-0.02,0-0.03,0c-0.17,0.06-0.34,0.11-0.51,0.16c-0.02,0-0.03,0.01-0.05,0.02c-1.66,0.53-3.3,1.15-4.93,1.78
		c-0.17,0.06-0.33,0.13-0.5,0.19c0.15-0.1,0.3-0.2,0.45-0.29c4.18-2.65,8.85-3.65,13.74-3.86c0.12-0.03,0.25-0.05,0.38-0.07
		c2.06-0.37,4.15-0.26,6.23-0.29c0.61,0,1.23,0,1.85,0c0.51-0.2,1.13,0.11,1.64-0.08C56.24,6.38,56.39,6.27,56.52,6.09z"/>
	<path class="st1" d="M62.72,8.65c-0.27,0.1-0.47,0.25-0.44,0.58c-0.03,0.02-0.07,0.05-0.1,0.07c-0.43,0.28-0.86,0.57-1.29,0.85
		c-0.07-0.02-0.14-0.05-0.21-0.06c-2.26-0.71-4.52-1.41-6.77-2.11c0-0.01,0-0.02,0-0.04c-0.02-0.29,0.11-0.55,0.24-0.82
		c0.11-0.2,0.22-0.4,0.3-0.6c0.51-0.2,1.13,0.11,1.64-0.08c0.16-0.06,0.31-0.16,0.44-0.34l0.71-0.08c0.19,0.21,0.29,0.44,0.31,0.69
		c0.01,0.16-0.01,0.32-0.06,0.49c0,0.05-0.01,0.09-0.04,0.14c-0.07-0.01-0.14-0.02-0.21-0.03c-0.18,0.15-0.75,0.32-0.49,0.44
		c1.28,0.55,2.51,1.49,4.06,1.07c-0.18-0.15-0.35-0.29-0.54-0.42c0.2,0.01,0.41-0.01,0.62-0.07c0.18,0,0.37-0.06,0.56-0.14
		c0.45-0.16,0.91-0.35,1.22,0.31C62.68,8.54,62.7,8.59,62.72,8.65z"/>
	<path class="st1" d="M65.52,9.68c-0.16-0.06-0.32-0.12-0.49-0.18c-0.77-0.28-1.54-0.57-2.32-0.85c-0.04-0.05-0.09-0.08-0.13-0.12
		c-0.02-0.02-0.05-0.04-0.07-0.06C62.3,8.32,62.1,8.29,61.9,8.33c0,0-0.01,0-0.01,0c-0.37,0.06-0.73,0.36-1.1,0.48
		c-0.18-0.15-0.35-0.29-0.54-0.42h0c-0.84-0.58-1.79-0.92-2.82-1.06c-0.07-0.01-0.14-0.02-0.21-0.03c0-0.22,0-0.43,0-0.65
		c0-0.21,0-0.43,0-0.63c2.14,0.07,3.63,2.16,6.03,1.77C63.92,7.67,65.5,8.17,65.52,9.68z"/>
	<path class="st1" d="M53.9,7.93c-0.02,0.01-0.05,0.01-0.07,0.01c-1.71,0.06-3.42-0.68-5.7-0.06C50.29,8.6,52,8.93,53.51,9.78
		c0.03,0,0.06,0.01,0.1,0.01c0.02,0.06,0.04,0.12,0.06,0.18c-0.03,0.08-0.07,0.16-0.12,0.21h0c-0.01,0.01-0.02,0.03-0.04,0.04
		c-0.05,0.05-0.11,0.08-0.17,0.1v0c-0.06,0.02-0.13,0.03-0.2,0.03c-1.87-0.14-3.76,0.31-5.61-0.24c-0.13-0.02-0.2-0.05-0.22-0.09
		c-0.05-0.07,0.05-0.16,0.16-0.25c0.02-0.01,0.04-0.03,0.06-0.05c0.01,0.01,0.02,0.02,0.03,0.04c0.48-0.18,1.09,0.11,1.5-0.37
		c-0.27-0.61-0.84-0.52-1.35-0.65c-3.14-0.81-5.94,0.45-8.8,1.37v0c0.01,0.04,0.02,0.07,0.03,0.12c-0.04-0.03-0.08-0.06-0.12-0.09
		c-0.87-1.73-1.84-0.4-2.79-0.1c-0.38,0.18-0.76,0.37-1.14,0.54c0,0,0,0,0,0c-0.77,0.35-1.55,0.66-2.4,0.82
		c-0.04,0.01-0.09,0.02-0.13,0.03c-0.18-0.14-0.37-0.28-0.55-0.43c0.15-0.1,0.3-0.2,0.45-0.29c4.18-2.65,8.85-3.65,13.74-3.86
		c0.12-0.03,0.25-0.05,0.38-0.07c2.07-0.32,4.17,0.22,6.23-0.29c0.61,0,1.23,0,1.85,0c0.12,0.19,0.21,0.38,0.25,0.54
		C54.82,7.51,54.61,7.83,53.9,7.93z"/>
	<path class="st1" d="M113.02,49.69c0.01,0.02,0.02,0.04,0.03,0.06c-0.05-0.02-0.09-0.05-0.12-0.08
		C112.95,49.69,112.98,49.7,113.02,49.69z"/>
	<path class="st1" d="M113.84,49.98c0,0.03-0.01,0.07-0.02,0.11c-0.03-0.04-0.06-0.08-0.1-0.11
		C113.76,49.98,113.8,49.98,113.84,49.98z"/>
	<path class="st1" d="M87.28,47.2c0.56,0.78,1.17,1.5,0.69,2.39c-0.09,0.16-0.86,0.19-1.02,0.02C86.16,48.75,87,48,87.28,47.2z"/>
	<path class="st1" d="M66.84,21.4c-0.02,0.22-0.04,0.43-0.06,0.65c-0.05,0.54-0.1,1.07-0.14,1.6c0,0.03,0,0.05-0.01,0.08
		c-0.08,2.32-0.21,4.65-0.23,6.98c-0.01,0.95-0.19,1.84-0.6,2.65c-1.06,2.12-4.48,3.13-8.03,2.46c-2.87-0.54-4.52-2.1-4.66-4.83
		c-0.15-2.97,0.02-5.96-0.07-8.93c-0.07-2.03,1.33-1.64,2.49-1.7c1.2-0.06,2.06,0.16,2.01,1.73c-0.07,2.59,0.06,5.19,0.05,7.79
		c-0.01,1.39,0.62,2.23,1.95,2.34c1.4,0.11,2.22-0.55,2.51-2.05c0.43-2.28,0.33-4.58,0.17-6.83c-0.17-2.27,0.53-3.29,2.82-3.08
		c0.02-0.01,0.04-0.03,0.06-0.04c0.11-0.08,0.21-0.12,0.31-0.14c0.23-0.05,0.46,0.04,0.67,0.26C66.33,20.68,66.58,21.04,66.84,21.4z
		"/>
	<path class="st1" d="M49.57,32.44c-0.22-0.46-0.71-0.79-1.01-1.23c-0.58-0.85-1.09-1.56,0.34-2.34c1.95-1.08,2.12-3.09,1.64-5.02
		c-0.45-1.85-1.69-3.06-3.73-3.11c-2.12-0.05-4.24-0.02-6.35-0.02c-1.11,0-1.14,0.8-1.14,1.59c-0.01,3.9,0,7.79-0.04,11.69
		c-0.01,1,0.26,1.53,1.37,1.64c2.53,0.24,2.88-0.07,2.72-2.69c-0.04-0.65-0.3-1.33,0.24-2.18c1.24,1.06,1.48,2.5,2.27,3.6
		c0.75,1.05,4.3,1.97,4.91,1.09C51.7,34.11,50.04,33.43,49.57,32.44z M44.37,27.49c-1.48-0.03-0.95-1.24-1.03-2.05
		c-0.08-0.9-0.02-1.74,1.28-1.59c1.06,0.11,1.95,0.54,1.89,1.75C46.45,26.86,45.58,27.52,44.37,27.49z"/>
	<path class="st1" d="M68,18.05L68,18.05c-0.06,0.13-0.13,0.26-0.23,0.4c-2.65-3.1-5.8-5.47-9.8-6.65c2.87,2.7,6.13,5.02,8.1,8.53
		c-0.18-0.01-0.37-0.03-0.55-0.04c-0.15-0.01-0.31-0.02-0.46-0.03c-0.01,0-0.02,0-0.03,0c-2.88-4.36-6.9-7.36-11.51-9.67
		c-0.13-0.08-0.19-0.16-0.18-0.24v0c0-0.02,0-0.03,0.01-0.05c0.04-0.06,0.07-0.11,0.1-0.12c0.02-0.02,0.04-0.02,0.06-0.02
		c0-0.12,0-0.23,0-0.35c0.03,0,0.06,0.01,0.1,0.01c4.7,0.64,8.9,2.34,12.37,5.67c0.28,0.26,0.49,0.74,0.91,0.79
		c0.15,0.02,0.33-0.02,0.55-0.15C68.01,16.7,68.3,17.32,68,18.05z"/>
	<path class="st1" d="M53.52,10.57c-7.3-0.63-14.04,0.73-19.72,5.65c-1.32,1.14-2.7,2.27-3.42,3.95c-0.01,0-0.02,0.01-0.03,0.01
		c-0.46,0.2-0.92,0.39-1.38,0.57c0.14-0.23,0.28-0.46,0.43-0.68c4.22-6.45,10.42-9.59,18.06-10.3c0.02-0.01,0.04-0.03,0.06-0.05
		c0.01,0.01,0.02,0.02,0.03,0.04c0.26,0.1,0.52,0.17,0.79,0.23c1.66,0.36,3.36-0.01,5.04,0.12c0.05,0,0.09,0,0.14,0.01v0.04
		c0,0.02,0,0.04,0,0.06C53.52,10.34,53.52,10.46,53.52,10.57z"/>
	<path class="st1" d="M38.9,10.12c0.01,0.04,0.02,0.07,0.03,0.12c-0.04-0.03-0.08-0.06-0.12-0.09
		C38.84,10.14,38.87,10.13,38.9,10.12z"/>
	<path class="st1" d="M47.55,9.77c-0.03,0-0.06,0-0.08,0.01c0.02-0.01,0.04-0.03,0.06-0.05C47.53,9.75,47.54,9.76,47.55,9.77z"/>
	<path class="st1" d="M52.6,6.51c-2.16,0.85-4.4,0.34-6.61,0.36c0.12-0.03,0.25-0.05,0.38-0.07C48.43,6.42,50.52,6.53,52.6,6.51z"/>
	<path class="st1" d="M45.35,29.04c-1.01,1.15-2.21,0.96-3.63,0.8C42.76,27.91,44.18,29.1,45.35,29.04z"/>
</g>
</svg>
