<?xml version="1.0" encoding="utf-8"?>
<!-- Generator: Adobe Illustrator 26.0.3, SVG Export Plug-In . SVG Version: 6.00 Build 0)  -->
<svg version="1.1" id="Layer_1" xmlns="http://www.w3.org/2000/svg" xmlns:xlink="http://www.w3.org/1999/xlink" x="0px" y="0px"
	 viewBox="0 0 120 60" style="enable-background:new 0 0 120 60;" xml:space="preserve">
<style type="text/css">
	.st0{fill:#FFFFFF;}
	.st1{fill:#040404;}
</style>
<g>
	<path d="M16.88,27.18c-1.78-0.01-3.57-0.01-5.35-0.02c-0.24,0-0.29,0.11-0.29,0.32c0.01,0.5,0,0.99,0,1.49c0,3-0.01,6,0.01,9
		c0,0.37-0.1,0.47-0.47,0.46c-1.57-0.02-3.14-0.02-4.71,0c-0.37,0.01-0.44-0.12-0.44-0.45c0.01-3.44,0-6.88,0.02-10.33
		c0-0.38-0.09-0.5-0.48-0.5c-1.6,0.02-3.19,0-4.79,0.02C0.1,27.17,0,27.11,0,26.79c0.02-1.62,0.01-3.24,0-4.86
		c0-0.28,0.07-0.36,0.36-0.36c5.39,0.01,10.78,0.01,16.17,0c0.2,0,0.36-0.02,0.36,0.28c-0.02,1.78-0.01,3.56-0.02,5.34L16.88,27.18z
		"/>
	<path d="M16.87,27.19c1.73,0,3.46,0.02,5.19,0.01c0.36,0,0.48,0.08,0.48,0.46c-0.02,1.57,0,3.13-0.02,4.7
		c-0.01,0.4,0.12,0.49,0.5,0.49c3.45-0.01,6.89,0,10.34-0.02c0.35,0,0.46,0.08,0.45,0.44c-0.02,1.57-0.02,3.13,0,4.7
		c0.01,0.38-0.12,0.46-0.48,0.46c-5.32-0.01-10.65-0.01-15.97,0c-0.36,0-0.44-0.1-0.44-0.45c0.01-3.43,0.01-6.86,0.01-10.29
		c0-0.17,0.04-0.35-0.04-0.51C16.88,27.18,16.87,27.19,16.87,27.19z"/>
	<path d="M28.18,27.16c-1.73,0-3.46-0.01-5.19,0.01c-0.31,0-0.42-0.08-0.42-0.4c0.01-1.59,0.01-3.19,0-4.78
		c0-0.3,0.07-0.42,0.4-0.42c3.49,0.01,6.97,0.01,10.46,0c0.27,0,0.37,0.07,0.37,0.36c-0.01,1.62-0.01,3.24,0,4.86
		c0,0.31-0.1,0.38-0.39,0.38C31.67,27.16,29.93,27.16,28.18,27.16z"/>
	<path d="M71.77,30.77c0-1.03,0.15-1.95,0.58-2.81c0.68-1.34,1.78-2.11,3.28-2.3c0.53-0.07,1.07-0.05,1.61,0.02
		c1.6,0.2,2.51,1.2,3.04,2.64c0.07,0.19-0.01,0.24-0.15,0.29c-0.67,0.26-1.35,0.52-2.02,0.79c-0.21,0.09-0.28,0.01-0.36-0.17
		c-0.09-0.22-0.2-0.44-0.33-0.64c-0.56-0.81-1.72-0.81-2.28,0c-0.27,0.39-0.39,0.85-0.45,1.32c-0.1,0.82-0.08,1.63,0.22,2.42
		c0.21,0.54,0.55,0.96,1.16,1.04c0.64,0.09,1.15-0.13,1.54-0.66c0.17-0.22,0.24-0.62,0.49-0.64c0.25-0.02,0.53,0.23,0.79,0.36
		c0.39,0.2,0.77,0.43,1.18,0.61c0.29,0.13,0.28,0.27,0.13,0.52c-1.01,1.74-2.75,2.51-4.89,2.13c-1.8-0.32-3.09-1.71-3.43-3.69
		C71.8,31.57,71.76,31.13,71.77,30.77z"/>
	<path d="M115.74,28.71c0.77-0.53,1.54-0.73,2.39-0.58c0.82,0.15,1.35,0.62,1.63,1.38c0.17,0.47,0.24,0.96,0.24,1.46
		c0,1.43-0.01,2.87,0.01,4.3c0,0.27-0.05,0.38-0.35,0.37c-0.62-0.02-1.23-0.03-1.85,0c-0.32,0.01-0.37-0.11-0.37-0.39
		c0.01-1.19,0.01-2.38,0-3.58c0-0.23,0-0.46-0.03-0.68c-0.07-0.51-0.32-0.74-0.77-0.75c-0.51-0.01-0.75,0.19-0.85,0.71
		c-0.09,0.48-0.04,0.96-0.04,1.44c-0.01,0.98-0.01,1.95,0,2.93c0,0.25-0.07,0.32-0.32,0.32c-0.63-0.02-1.26-0.02-1.89,0
		c-0.26,0.01-0.35-0.06-0.35-0.33c0.01-2.88,0.01-5.76,0-8.64c0-0.23,0.09-0.33,0.29-0.41c0.64-0.24,1.28-0.49,1.9-0.76
		c0.34-0.15,0.37-0.03,0.37,0.27C115.73,26.72,115.74,27.67,115.74,28.71z"/>
	<path d="M65.9,25.41c0,1.03,0.01,1.99,0,2.95c0,0.33,0.06,0.37,0.34,0.19c0.67-0.44,1.42-0.54,2.2-0.37
		c0.74,0.16,1.22,0.63,1.48,1.33c0.16,0.44,0.23,0.91,0.24,1.38c0.01,1.46,0,2.92,0.01,4.38c0,0.25-0.06,0.36-0.33,0.35
		c-0.6-0.02-1.21-0.02-1.81,0c-0.29,0.01-0.36-0.1-0.36-0.37c0.01-1.15,0.01-2.3,0-3.45c0-0.27-0.01-0.54-0.04-0.8
		c-0.06-0.51-0.31-0.75-0.75-0.78c-0.53-0.03-0.79,0.17-0.91,0.69c-0.04,0.18-0.05,0.37-0.05,0.56c0,1.26-0.01,2.52,0,3.78
		c0,0.3-0.09,0.39-0.38,0.38c-0.6-0.02-1.21-0.02-1.81,0c-0.23,0.01-0.3-0.08-0.3-0.3c0.01-2.89,0-5.78,0-8.68
		c0-0.14,0.01-0.25,0.17-0.32C64.34,26.03,65.08,25.73,65.9,25.41z"/>
	<path d="M92.63,35.18c-0.49,0.32-0.96,0.54-1.49,0.59c-1.52,0.16-2.54-0.68-2.69-2.25c-0.13-1.35-0.04-2.7-0.05-4.06
		c0-0.4-0.17-0.91,0.08-1.16c0.23-0.23,0.74-0.05,1.13-0.07c0.33-0.01,0.67,0.01,1.01-0.01c0.26-0.01,0.35,0.07,0.34,0.34
		c-0.01,1.22-0.01,2.44,0,3.66c0,0.25,0.02,0.51,0.06,0.76c0.08,0.45,0.33,0.65,0.78,0.65c0.45,0,0.71-0.19,0.8-0.63
		c0.04-0.22,0.05-0.45,0.05-0.68c0-1.22,0.02-2.44-0.01-3.66c-0.01-0.37,0.11-0.45,0.45-0.44c0.59,0.03,1.18,0.02,1.77,0
		c0.24-0.01,0.35,0.04,0.35,0.32c-0.01,2.25-0.01,4.5,0,6.75c0,0.27-0.09,0.34-0.34,0.33c-0.58-0.02-1.15-0.01-1.73,0
		C92.85,35.64,92.56,35.67,92.63,35.18z"/>
	<path d="M99.55,28.73c0.51-0.35,0.97-0.55,1.48-0.62c1.41-0.2,2.43,0.51,2.69,1.9c0.06,0.31,0.1,0.64,0.1,0.96
		c0.01,1.43,0,2.87,0.01,4.3c0,0.31-0.09,0.39-0.38,0.37c-0.62-0.02-1.23-0.02-1.85,0c-0.28,0.01-0.34-0.1-0.34-0.35
		c0.01-1.25,0.01-2.49,0-3.74c0-0.21,0-0.43-0.04-0.64c-0.08-0.47-0.34-0.68-0.8-0.68c-0.47,0-0.71,0.2-0.8,0.67
		c-0.04,0.21-0.05,0.43-0.06,0.64c0,1.25-0.01,2.49,0,3.74c0,0.28-0.08,0.37-0.36,0.36c-0.62-0.02-1.23-0.01-1.85,0
		c-0.23,0-0.33-0.04-0.33-0.3c0.01-2.26,0.01-4.53,0-6.79c0-0.26,0.09-0.32,0.33-0.31c0.6,0.01,1.21,0.02,1.81,0
		C99.48,28.21,99.64,28.29,99.55,28.73z"/>
	<path d="M43.78,25.8c1.21,0,2.41,0.01,3.62-0.01c0.38-0.01,0.48,0.12,0.46,0.48c-0.03,0.51-0.02,1.02,0,1.53
		c0.01,0.27-0.09,0.34-0.35,0.34c-0.64-0.02-1.29,0.02-1.93-0.01c-0.4-0.02-0.53,0.09-0.52,0.51c0.02,2.17,0,4.34,0.02,6.5
		c0,0.39-0.1,0.51-0.49,0.48c-0.59-0.03-1.18-0.03-1.77,0c-0.33,0.01-0.43-0.09-0.43-0.42c0.01-2.15,0.01-4.31,0.01-6.46
		c0-0.71,0.01-0.59-0.61-0.6c-0.62-0.01-1.23-0.01-1.85,0c-0.24,0.01-0.33-0.06-0.32-0.31c0.02-0.55,0.02-1.1,0-1.65
		c-0.02-0.32,0.11-0.38,0.39-0.38C41.26,25.81,42.52,25.8,43.78,25.8z"/>
	<path d="M52.04,32.63c-0.62,0-1.23,0.01-1.85,0c-0.25,0-0.34,0.06-0.26,0.33c0.16,0.53,0.54,0.86,1.1,0.9
		c0.6,0.04,1.17-0.09,1.71-0.36c0.24-0.12,0.38-0.11,0.51,0.14c0.19,0.37,0.42,0.72,0.64,1.07c0.1,0.16,0.09,0.25-0.08,0.34
		c-1.16,0.6-2.38,0.9-3.69,0.61c-1.19-0.27-1.95-1.04-2.3-2.19c-0.32-1.04-0.31-2.09,0.01-3.13c0.44-1.45,1.7-2.3,3.25-2.24
		c1.56,0.06,2.6,0.92,2.98,2.44c0.14,0.59,0.18,1.19,0.18,1.79c0,0.23-0.08,0.3-0.3,0.3C53.3,32.63,52.67,32.63,52.04,32.63z
		 M50.94,31.12c0.27,0,0.54-0.01,0.8,0c0.24,0.01,0.3-0.08,0.25-0.31c-0.12-0.55-0.49-0.86-1.04-0.88c-0.51-0.01-0.84,0.26-1.01,0.8
		c-0.08,0.27-0.05,0.41,0.27,0.39C50.46,31.1,50.7,31.12,50.94,31.12z"/>
	<path d="M107.83,31.93c-0.01,0.38,0.02,0.75,0.15,1.11c0.27,0.73,0.98,0.92,1.58,0.42c0.06-0.05,0.12-0.11,0.17-0.17
		c0.46-0.48,0.46-0.48,1.01-0.06c0.26,0.21,0.52,0.42,0.79,0.61c0.16,0.11,0.2,0.2,0.08,0.39c-0.83,1.27-2.11,1.78-3.71,1.47
		c-1.34-0.26-2.25-1.23-2.5-2.7c-0.15-0.88-0.15-1.76,0.11-2.62c0.42-1.34,1.34-2.08,2.73-2.26c1.37-0.18,2.48,0.23,3.28,1.4
		c0.14,0.21,0.11,0.31-0.08,0.45c-0.43,0.3-0.84,0.62-1.25,0.95c-0.2,0.16-0.31,0.15-0.42-0.08c-0.09-0.19-0.23-0.36-0.4-0.5
		c-0.44-0.35-1.04-0.23-1.3,0.27C107.86,31.02,107.83,31.47,107.83,31.93z"/>
	<path d="M57.99,31.93c0,0.38,0.02,0.75,0.15,1.11c0.28,0.74,1,0.94,1.62,0.44c0.06-0.05,0.12-0.11,0.18-0.16
		c0.46-0.48,0.46-0.48,0.98-0.08c0.26,0.21,0.52,0.42,0.79,0.62c0.17,0.12,0.17,0.22,0.06,0.39c-0.83,1.24-2.15,1.75-3.69,1.42
		c-1.35-0.29-2.23-1.27-2.47-2.73c-0.14-0.91-0.13-1.81,0.17-2.69c0.55-1.62,1.95-2.22,3.52-2.13c1.02,0.06,1.79,0.56,2.37,1.39
		c0.14,0.2,0.13,0.31-0.07,0.45c-0.43,0.3-0.84,0.62-1.25,0.95c-0.17,0.14-0.26,0.12-0.36-0.07c-0.08-0.15-0.19-0.3-0.31-0.42
		c-0.47-0.48-1.17-0.37-1.47,0.23C58.02,31.05,57.99,31.49,57.99,31.93z"/>
	<path d="M84.43,28.72c0.4-0.28,0.75-0.54,1.19-0.6c0.19-0.02,0.37-0.05,0.56-0.04c0.96,0.05,1.07,0.2,0.85,1.12
		c-0.13,0.57-0.27,1.15-0.4,1.72c0,0.01-0.02,0.01-0.04,0.02c-0.14-0.02-0.2-0.15-0.31-0.23c-0.42-0.3-0.88-0.42-1.36-0.2
		c-0.45,0.21-0.48,0.65-0.48,1.07c-0.01,1.18,0,2.36-0.01,3.53c0,0.09-0.01,0.19,0,0.28c0.01,0.18-0.07,0.23-0.24,0.23
		c-0.68-0.01-1.37-0.01-2.05,0c-0.32,0.01-0.25-0.21-0.25-0.38c0-2.1,0-4.2,0-6.3c0-0.13,0.01-0.27,0-0.4
		c-0.02-0.24,0.07-0.33,0.32-0.32c0.58,0.02,1.15,0.02,1.73,0C84.26,28.21,84.51,28.23,84.43,28.72z"/>
</g>
</svg>
